<?xml version="1.0" encoding="UTF-8"?>
<svg id="Layer_2" data-name="Layer 2" xmlns="http://www.w3.org/2000/svg" xmlns:xlink="http://www.w3.org/1999/xlink" viewBox="0 0 47 47">
  <defs>
    <style>
      .cls-1 {
        fill: #29235c;
      }

      .cls-2 {
        fill: #f7f7f7;
        filter: url(#drop-shadow-1);
      }
    </style>
    <filter id="drop-shadow-1" filterUnits="userSpaceOnUse">
      <feOffset dx="2.83" dy="2.83"/>
      <feGaussianBlur result="blur" stdDeviation="2.83"/>
      <feFlood flood-color="#7f7e7e" flood-opacity=".75"/>
      <feComposite in2="blur" operator="in"/>
      <feComposite in="SourceGraphic"/>
    </filter>
  </defs>
  <g id="FRAMEWORK">
    <g id="SIDE_BAR" data-name="SIDE BAR">
      <g>
        <circle class="cls-2" cx="20.48" cy="20.59" r="14.26"/>
        <g>
          <path class="cls-1" d="m16.44,23.67c-1.7,0-3.4,0-5.1,0-.74,0-1.38-.21-1.87-.83-.6-.76-.74-1.63-.39-2.55.35-.92,1.03-1.37,1.92-1.47.65-.07.72-.14.74-.85.03-1.54,1.01-2.9,2.37-3.28,1.4-.39,2.85.26,3.57,1.61q.35.64,1,.53c.87-.15,1.62.41,1.82,1.35.11.54.22.62.72.64.39.02.8,0,1.17.11,1.04.3,1.68,1.4,1.57,2.61-.11,1.13-.96,2.08-2.02,2.11-1.83.04-3.66.01-5.48.01v.02Z"/>
          <path class="cls-1" d="m21.15,24.95c-1.64,0-3.28,0-4.93,0-.09,0-.18,0-.26-.01-.17-.04-.3-.17-.25-.34.03-.12.16-.23.27-.31.07-.05.19-.02.28-.02,3.23,0,6.46,0,9.69,0,.13,0,.27,0,.39-.02.39-.09.66-.45.65-.85-.01-.39-.32-.75-.7-.81-.4-.06-.78.15-.93.53-.03.07-.04.15-.06.23-.07.2-.21.29-.41.24-.2-.05-.28-.2-.25-.4.1-.56.42-.96.95-1.17.54-.21,1.06-.13,1.51.23.51.41.69,1.07.47,1.69-.22.61-.78,1.02-1.45,1.02-1.66,0-3.32,0-4.98,0Z"/>
          <path class="cls-1" d="m28.37,20.73c-1.04,0-2.09,0-3.13,0-.29,0-.46-.18-.4-.42.06-.2.22-.26.41-.26.42,0,.84,0,1.26,0,1.62,0,3.23,0,4.85,0,.54,0,.91-.39.88-.9-.03-.41-.34-.74-.75-.79-.39-.05-.78.2-.9.58-.13.38-.25.49-.48.42-.23-.07-.28-.29-.16-.66.25-.72,1.01-1.14,1.77-.98.75.16,1.25.86,1.18,1.66-.07.73-.71,1.33-1.45,1.34-1.03.01-2.05,0-3.08,0h0Z"/>
        </g>
      </g>
    </g>
  </g>
</svg>