<?xml version="1.0" encoding="utf-8"?>
<!-- Generator: Adobe Illustrator 27.0.0, SVG Export Plug-In . SVG Version: 6.00 Build 0)  -->
<svg version="1.1" id="Layer_2_00000031186395373394350750000014820408859257448102_"
	 xmlns="http://www.w3.org/2000/svg" xmlns:xlink="http://www.w3.org/1999/xlink" x="0px" y="0px" viewBox="0 0 47 47"
	 style="enable-background:new 0 0 47 47;" xml:space="preserve">
<style type="text/css">
	.st0{fill:url(#SVGID_1_);}
	.st1{fill:#FFFFFF;}
</style>
<g id="FRAMEWORK">
	<g id="SIDE_BAR">
		<g>
			<linearGradient id="SVGID_1_" gradientUnits="userSpaceOnUse" x1="20.48" y1="6.33" x2="20.48" y2="34.85">
				<stop  offset="0" style="stop-color:#009EE2"/>
				<stop  offset="0.1389" style="stop-color:#0B7EBF"/>
				<stop  offset="0.3087" style="stop-color:#165D9C"/>
				<stop  offset="0.4805" style="stop-color:#1E4480"/>
				<stop  offset="0.6526" style="stop-color:#24326C"/>
				<stop  offset="0.8254" style="stop-color:#282760"/>
				<stop  offset="1" style="stop-color:#29235C"/>
			</linearGradient>
			<circle class="st0" cx="20.5" cy="20.6" r="14.3"/>
			<g>
				<path class="st1" d="M16.4,23.7c-1.7,0-3.4,0-5.1,0c-0.7,0-1.4-0.2-1.9-0.8c-0.6-0.8-0.7-1.6-0.4-2.5c0.4-0.9,1-1.4,1.9-1.5
					c0.6-0.1,0.7-0.1,0.7-0.9c0-1.5,1-2.9,2.4-3.3c1.4-0.4,2.8,0.3,3.6,1.6c0.2,0.4,0.6,0.6,1,0.5c0.9-0.1,1.6,0.4,1.8,1.4
					c0.1,0.5,0.2,0.6,0.7,0.6c0.4,0,0.8,0,1.2,0.1c1,0.3,1.7,1.4,1.6,2.6c-0.1,1.1-1,2.1-2,2.1C20.1,23.7,18.3,23.7,16.4,23.7
					L16.4,23.7L16.4,23.7z"/>
				<path class="st1" d="M21.1,25c-1.6,0-3.3,0-4.9,0c-0.1,0-0.2,0-0.3,0c-0.2,0-0.3-0.2-0.2-0.3c0-0.1,0.2-0.2,0.3-0.3
					c0.1,0,0.2,0,0.3,0c3.2,0,6.5,0,9.7,0c0.1,0,0.3,0,0.4,0c0.4-0.1,0.7-0.5,0.6-0.9c0-0.4-0.3-0.8-0.7-0.8
					c-0.4-0.1-0.8,0.1-0.9,0.5c0,0.1,0,0.1-0.1,0.2c-0.1,0.2-0.2,0.3-0.4,0.2c-0.2,0-0.3-0.2-0.2-0.4c0.1-0.6,0.4-1,1-1.2
					c0.5-0.2,1.1-0.1,1.5,0.2c0.5,0.4,0.7,1.1,0.5,1.7c-0.2,0.6-0.8,1-1.5,1C24.5,25,22.8,25,21.1,25L21.1,25z"/>
				<path class="st1" d="M28.4,20.7c-1,0-2.1,0-3.1,0c-0.3,0-0.5-0.2-0.4-0.4c0.1-0.2,0.2-0.3,0.4-0.3c0.4,0,0.8,0,1.3,0
					c1.6,0,3.2,0,4.9,0c0.5,0,0.9-0.4,0.9-0.9c0-0.4-0.3-0.7-0.8-0.8c-0.4,0-0.8,0.2-0.9,0.6c-0.1,0.4-0.2,0.5-0.5,0.4
					s-0.3-0.3-0.2-0.7c0.2-0.7,1-1.1,1.8-1c0.7,0.2,1.2,0.9,1.2,1.7c-0.1,0.7-0.7,1.3-1.5,1.3C30.4,20.7,29.4,20.7,28.4,20.7
					L28.4,20.7L28.4,20.7z"/>
			</g>
		</g>
	</g>
</g>
</svg>
