<?xml version="1.0" encoding="utf-8"?>
<!-- Generator: Adobe Illustrator 27.0.0, SVG Export Plug-In . SVG Version: 6.00 Build 0)  -->
<svg version="1.1" xmlns="http://www.w3.org/2000/svg" xmlns:xlink="http://www.w3.org/1999/xlink" x="0px" y="0px"
	 viewBox="0 0 47 47" style="enable-background:new 0 0 47 47;" xml:space="preserve">
<style type="text/css">
	.st0{display:none;}
	.st1{display:inline;fill:url(#SVGID_1_);}
	.st2{fill:#FFFFFF;}
	.st3{fill:#29235C;}
</style>
<g id="Layer_1">
	<g id="bg" class="st0">
		
			<linearGradient id="SVGID_1_" gradientUnits="userSpaceOnUse" x1="0" y1="24.2898" x2="47.2" y2="24.2898" gradientTransform="matrix(1 0 0 -1 0 47.8898)">
			<stop  offset="0" style="stop-color:#009EE2"/>
			<stop  offset="0.1389" style="stop-color:#0B7EBF"/>
			<stop  offset="0.3087" style="stop-color:#165D9C"/>
			<stop  offset="0.4805" style="stop-color:#1E4480"/>
			<stop  offset="0.6526" style="stop-color:#24326C"/>
			<stop  offset="0.8254" style="stop-color:#282760"/>
			<stop  offset="1" style="stop-color:#29235C"/>
		</linearGradient>
		<rect y="0" class="st1" width="47.2" height="47.2"/>
	</g>
	<g id="Layer_2_00000031186395373394350750000014820408859257448102_">
		
			<image style="overflow:visible;opacity:0.75;" width="191" height="191" xlink:href="4B935DAB.png"  transform="matrix(0.24 0 0 0.24 0.3761 0.5761)">
		</image>
		<g>
			<g>
				<g id="FRAMEWORK_00000016758614245728811210000009181027344189825211_">
					<g id="SIDE_BAR_00000183949247493982744080000000456858154494893224_">
						<g>
							<circle class="st2" cx="20.5" cy="20.6" r="14.3"/>
							<g>
								<path class="st3" d="M12,18.1c0.1-0.2,0.2-0.3,0.4-0.4c1.4-0.6,2.8-1.1,4.2-1.7c0,0,0.1,0,0.2-0.1c0,0.1,0,0.1,0,0.2
									c0,3.1,0,6.3,0,9.4c0,0.1,0,0.2-0.2,0.2c-1.3,0.5-2.6,1.1-4,1.6c0,0,0,0,0,0c-0.1,0-0.1,0-0.2,0c-0.2-0.1-0.3-0.2-0.4-0.4
									C12,24.1,12,21.1,12,18.1z"/>
								<path class="st3" d="M22.5,27.4c0-2.2,0-4.4,0-6.6c0.1,0.1,0.2,0.3,0.3,0.4c0.3,0.3,0.6,0.5,1,0.5c0.5,0,0.8-0.2,1.1-0.5
									c0.8-0.9,1.5-1.8,2.1-2.8c0,0,0-0.1,0.1-0.1c0,0.1,0,0.1,0,0.1c0,2.2,0,4.5,0,6.7c0,0.3-0.1,0.4-0.4,0.6
									c-1.4,0.6-2.8,1.1-4.2,1.7C22.6,27.3,22.6,27.4,22.5,27.4C22.5,27.4,22.5,27.4,22.5,27.4z"/>
								<path class="st3" d="M21.6,27.2c-0.4-0.2-0.8-0.3-1.2-0.5c-0.8-0.3-1.6-0.7-2.5-1c-0.1,0-0.1-0.1-0.1-0.2c0-3.2,0-6.4,0-9.5
									c0,0,0,0,0-0.1c0.1,0,0.1,0,0.2,0.1c0.6,0.3,1.3,0.5,1.9,0.8c0.1,0,0.1,0.1,0.1,0.1c0.4,0.9,0.9,1.7,1.5,2.5
									c0.1,0.1,0.1,0.2,0.1,0.3c0,2.4,0,4.9,0,7.3C21.6,27.1,21.6,27.2,21.6,27.2z"/>
								<path class="st3" d="M23.9,12.1c1.6,0,3,1.1,3.3,2.7c0.1,0.6,0,1.2-0.2,1.8c-0.3,0.7-0.7,1.3-1.1,1.9c-0.5,0.7-1,1.3-1.6,2
									c-0.2,0.3-0.5,0.3-0.8,0c-0.8-1-1.6-2-2.3-3.1C21,17,20.8,16.5,20.7,16c-0.1-0.6,0-1.2,0.2-1.8c0.5-1,1.3-1.7,2.4-1.9
									C23.5,12.2,23.7,12.2,23.9,12.1z M23.9,16.9c0.8,0,1.4-0.6,1.4-1.4c0-0.8-0.6-1.4-1.4-1.4c-0.8,0-1.4,0.6-1.5,1.4
									C22.5,16.2,23.1,16.9,23.9,16.9z"/>
							</g>
						</g>
					</g>
				</g>
			</g>
		</g>
	</g>
</g>
<g id="MAPBASE">
</g>
<g id="FRAMEWORK_00000157277889770142880820000012324966964318789767_">
</g>
</svg>
