<?xml version="1.0" encoding="utf-8"?>
<!-- Generator: Adobe Illustrator 27.0.0, SVG Export Plug-In . SVG Version: 6.00 Build 0)  -->
<svg version="1.1" xmlns="http://www.w3.org/2000/svg" xmlns:xlink="http://www.w3.org/1999/xlink" x="0px" y="0px"
	 viewBox="0 0 47 47" style="enable-background:new 0 0 47 47;" xml:space="preserve">
<style type="text/css">
	.st0{display:none;}
	.st1{display:inline;fill:url(#SVGID_1_);}
	.st2{fill:#FFFFFF;}
	.st3{fill:#29235C;}
</style>
<g id="Layer_1">
	<g id="bg" class="st0">
		
			<linearGradient id="SVGID_1_" gradientUnits="userSpaceOnUse" x1="0" y1="24.2898" x2="47.2" y2="24.2898" gradientTransform="matrix(1 0 0 -1 0 47.8898)">
			<stop  offset="0" style="stop-color:#009EE2"/>
			<stop  offset="0.1389" style="stop-color:#0B7EBF"/>
			<stop  offset="0.3087" style="stop-color:#165D9C"/>
			<stop  offset="0.4805" style="stop-color:#1E4480"/>
			<stop  offset="0.6526" style="stop-color:#24326C"/>
			<stop  offset="0.8254" style="stop-color:#282760"/>
			<stop  offset="1" style="stop-color:#29235C"/>
		</linearGradient>
		<rect y="0" class="st1" width="47.2" height="47.2"/>
	</g>
	<g id="Layer_2_00000031186395373394350750000014820408859257448102_">
		
			<image style="overflow:visible;opacity:0.75;" width="191" height="191" xlink:href="8B6FD8F2.png"  transform="matrix(0.24 0 0 0.24 0.3761 0.5761)">
		</image>
		<g>
			<g>
				<g id="FRAMEWORK_00000142176584817169935220000005298686454127055021_">
					<g id="SIDE_BAR_00000146489166023006086580000013863511772988093626_">
						<g>
							<circle class="st2" cx="20.5" cy="20.6" r="14.3"/>
							<g>
								<path class="st3" d="M11.5,17.3c0-0.1,0-0.2,0-0.3c0.1-0.3,0.3-0.4,0.5-0.6c2.6-1.7,5.2-3.3,7.9-5c0.4-0.3,0.8-0.3,1.2,0
									c2.6,1.7,5.2,3.4,7.9,5c0.6,0.4,0.7,1.1,0,1.5c-2.6,1.6-5.3,3.3-7.9,5c-0.4,0.3-0.7,0.3-1.1,0c-2.6-1.7-5.3-3.4-7.9-5
									C11.8,17.7,11.6,17.6,11.5,17.3z"/>
								<path class="st3" d="M11.5,23c0.1-0.3,0.3-0.4,0.5-0.6c0.7-0.4,1.3-0.8,2-1.3c0.1-0.1,0.2-0.1,0.3,0c1.6,1,3.2,2.1,4.9,3.1
									c0.9,0.6,1.7,0.6,2.6,0c1.6-1,3.2-2.1,4.8-3.1c0.1-0.1,0.2-0.1,0.3,0c0.7,0.4,1.4,0.9,2.1,1.3c0.6,0.4,0.6,1,0,1.4
									c-2.7,1.7-5.3,3.4-8,5.1c-0.1,0.1-0.2,0.1-0.4,0.2c-0.1,0-0.2,0-0.3,0C20.2,29,20.1,29,20,28.9c-2.6-1.7-5.3-3.4-7.9-5
									c-0.2-0.2-0.4-0.3-0.5-0.6C11.5,23.2,11.5,23.1,11.5,23z"/>
							</g>
						</g>
					</g>
				</g>
			</g>
		</g>
	</g>
</g>
<g id="MAPBASE">
</g>
<g id="FRAMEWORK_00000157277889770142880820000012324966964318789767_">
</g>
<g id="LAYERS">
</g>
</svg>
