<?xml version="1.0" encoding="UTF-8"?>
<svg id="Layer_2" data-name="Layer 2" xmlns="http://www.w3.org/2000/svg" xmlns:xlink="http://www.w3.org/1999/xlink" viewBox="0 0 64.61 31.26">
  <defs>
    <style>
      .cls-1 {
        fill: url(#linear-gradient);
      }

      .cls-2 {
        fill: #fff;
      }

      .cls-3 {
        fill: url(#linear-gradient-3);
      }

      .cls-4 {
        fill: url(#linear-gradient-2);
      }
    </style>
    <linearGradient id="linear-gradient" x1="49.59" y1="16.39" x2="49.59" y2="7.15" gradientUnits="userSpaceOnUse">
      <stop offset="0" stop-color="#009ee2"/>
      <stop offset=".14" stop-color="#0a7dbf"/>
      <stop offset=".31" stop-color="#155d9b"/>
      <stop offset=".48" stop-color="#1e437f"/>
      <stop offset=".65" stop-color="#24316b"/>
      <stop offset=".83" stop-color="#27265f"/>
      <stop offset="1" stop-color="#29235c"/>
    </linearGradient>
    <linearGradient id="linear-gradient-2" x1="56.78" y1="17.59" x2="56.78" y2="6.66" xlink:href="#linear-gradient"/>
    <linearGradient id="linear-gradient-3" x1="50.64" y1="6.66" x2="50.64" y2="4.57" xlink:href="#linear-gradient"/>
  </defs>
  <g id="FRAMEWORK">
    <g id="LAYOUT">
      <g id="SPATIAL_IQ_LOGO" data-name="SPATIAL IQ LOGO">
        <g>
          <g id="College">
            <g>
              <ellipse class="cls-2" cx="54.12" cy="30.17" rx="4.43" ry="1.09"/>
              <path class="cls-2" d="m54.12,27.58c-3.34,0-10.5-11.99-10.5-17.57S48.33,0,54.12,0s10.5,4.49,10.5,10.01-7.16,17.57-10.5,17.57Zm0-27.18c-5.57,0-10.1,4.31-10.1,9.61s6.99,17.18,10.1,17.18,10.1-11.88,10.1-17.18S59.69.4,54.12.4Z"/>
              <path class="cls-2" d="m54.12,27.58c-3.34,0-10.5-11.99-10.5-17.57S48.33,0,54.12,0s10.5,4.49,10.5,10.01-7.16,17.57-10.5,17.57Z"/>
              <path class="cls-2" d="m54.12.4c-5.57,0-10.1,4.31-10.1,9.61s6.99,17.18,10.1,17.18,10.1-11.88,10.1-17.18S59.69.4,54.12.4Z"/>
            </g>
          </g>
          <g>
            <path class="cls-2" d="m3,16.27c-1.72,0-2.93-1-3-2.28h1.75c.06.52.55.92,1.24.92s1.05-.31,1.05-.71c0-1.23-3.88-.45-3.88-2.96,0-1.14,1.02-2.06,2.72-2.06s2.67.91,2.77,2.27h-1.66c-.05-.53-.47-.89-1.15-.89-.65,0-.98.26-.98.66,0,1.25,3.81.47,3.86,2.99,0,1.18-1.03,2.07-2.7,2.07Z"/>
            <path class="cls-2" d="m11.14,9.18c1.76,0,3.14,1.38,3.14,3.52s-1.38,3.57-3.14,3.57c-1.08,0-1.85-.53-2.27-1.09v4.25h-1.74v-10.15h1.74v.99c.41-.58,1.2-1.1,2.27-1.1Zm-.46,1.53c-.93,0-1.81.72-1.81,2.02s.88,2.02,1.81,2.02,1.82-.74,1.82-2.05-.88-2-1.82-2Z"/>
            <path class="cls-2" d="m18.24,9.18c1.1,0,1.86.52,2.27,1.09v-.98h1.75v6.87h-1.75v-1c-.41.6-1.19,1.12-2.28,1.12-1.74,0-3.13-1.43-3.13-3.57s1.39-3.52,3.14-3.52Zm.45,1.53c-.93,0-1.81.69-1.81,2s.88,2.05,1.81,2.05,1.82-.72,1.82-2.02-.87-2.02-1.82-2.02Z"/>
            <path class="cls-2" d="m24.23,10.72h-.82v-1.43h.82v-1.7h1.75v1.7h1.54v1.43h-1.54v3.32c0,.46.19.66.73.66h.81v1.46h-1.09c-1.31,0-2.2-.56-2.2-2.13v-3.31Z"/>
            <path class="cls-2" d="m28.58,7.45c0-.57.45-1.02,1.07-1.02s1.07.45,1.07,1.02-.46,1.02-1.07,1.02-1.07-.45-1.07-1.02Zm.19,1.84h1.74v6.87h-1.74v-6.87Z"/>
            <path class="cls-2" d="m34.91,9.18c1.1,0,1.86.52,2.27,1.09v-.98h1.75v6.87h-1.75v-1c-.41.6-1.19,1.12-2.28,1.12-1.74,0-3.13-1.43-3.13-3.57s1.39-3.52,3.14-3.52Zm.45,1.53c-.93,0-1.81.69-1.81,2s.88,2.05,1.81,2.05,1.82-.72,1.82-2.02-.87-2.02-1.82-2.02Z"/>
            <path class="cls-2" d="m40.63,6.98h1.74v9.18h-1.74V6.98Z"/>
          </g>
          <g>
            <path class="cls-1" d="m50.05,7.15h.33c.68,0,1.2.62,1.08,1.29l-1.24,7.04c-.09.53-.55.91-1.08.91h-.34c-.69,0-1.2-.62-1.08-1.29l1.25-7.04c.09-.53.55-.91,1.08-.91Z"/>
            <path class="cls-4" d="m59.55,15.75l.43.71c.3.5-.06,1.13-.64,1.13h-1.28c-.28,0-.54-.16-.67-.42l-.53-1.09c-.28.04-.56.05-.87.05-2.37,0-3.92-1.57-3.92-3.87,0-3.32,2.23-5.61,5.45-5.61,2.43,0,3.96,1.55,3.96,3.84,0,1.81-.67,3.32-1.81,4.33-.26.23-.31.62-.13.92Zm-3.16-2c1.6,0,2.56-1.39,2.56-2.95,0-1.1-.62-1.77-1.74-1.77-1.6,0-2.58,1.36-2.58,2.94,0,1.09.62,1.78,1.77,1.78Z"/>
          </g>
          <ellipse class="cls-3" cx="50.64" cy="5.61" rx="1.24" ry="1.04"/>
        </g>
      </g>
    </g>
  </g>
</svg>