<?xml version="1.0" encoding="utf-8"?>
<!-- Generator: Adobe Illustrator 27.0.0, SVG Export Plug-In . SVG Version: 6.00 Build 0)  -->
<svg version="1.1" xmlns="http://www.w3.org/2000/svg" xmlns:xlink="http://www.w3.org/1999/xlink" x="0px" y="0px"
	 viewBox="0 0 47 47" style="enable-background:new 0 0 47 47;" xml:space="preserve">
<style type="text/css">
	.st0{display:none;}
	.st1{display:inline;fill:url(#SVGID_1_);}
	.st2{fill:#FFFFFF;}
	.st3{display:inline;fill:#29235C;}
	.st4{fill:#29235C;}
</style>
<g id="Layer_1">
	<g id="bg" class="st0">
		
			<linearGradient id="SVGID_1_" gradientUnits="userSpaceOnUse" x1="0" y1="24.2898" x2="47.2" y2="24.2898" gradientTransform="matrix(1 0 0 -1 0 47.8898)">
			<stop  offset="0" style="stop-color:#009EE2"/>
			<stop  offset="0.1389" style="stop-color:#0B7EBF"/>
			<stop  offset="0.3087" style="stop-color:#165D9C"/>
			<stop  offset="0.4805" style="stop-color:#1E4480"/>
			<stop  offset="0.6526" style="stop-color:#24326C"/>
			<stop  offset="0.8254" style="stop-color:#282760"/>
			<stop  offset="1" style="stop-color:#29235C"/>
		</linearGradient>
		<rect y="0" class="st1" width="47.2" height="47.2"/>
	</g>
	<g id="Layer_2_00000031186395373394350750000014820408859257448102_">
		
			<image style="overflow:visible;opacity:0.75;" width="191" height="191" xlink:href="2FE0511F.png"  transform="matrix(0.24 0 0 0.24 0.3761 0.5761)">
		</image>
		<g>
			<g>
				<g id="FRAMEWORK_00000137817214501404741210000000581588069506708886_">
					<g id="SIDE_BAR_00000180337733538207395460000012870177228800243341_">
						<g>
							<circle class="st2" cx="20.5" cy="20.6" r="14.3"/>
							<g class="st0">
								<path class="st3" d="M11.5,17.3c0-0.1,0-0.2,0-0.3c0.1-0.3,0.3-0.4,0.5-0.6c2.6-1.7,5.2-3.3,7.9-5c0.4-0.3,0.8-0.3,1.2,0
									c2.6,1.7,5.2,3.4,7.9,5c0.6,0.4,0.7,1.1,0,1.5c-2.6,1.6-5.3,3.3-7.9,5c-0.4,0.3-0.7,0.3-1.1,0c-2.6-1.7-5.3-3.4-7.9-5
									C11.8,17.7,11.6,17.6,11.5,17.3z"/>
								<path class="st3" d="M11.5,23c0.1-0.3,0.3-0.4,0.5-0.6c0.7-0.4,1.3-0.8,2-1.3c0.1-0.1,0.2-0.1,0.3,0c1.6,1,3.2,2.1,4.9,3.1
									c0.9,0.6,1.7,0.6,2.6,0c1.6-1,3.2-2.1,4.8-3.1c0.1-0.1,0.2-0.1,0.3,0c0.7,0.4,1.4,0.9,2.1,1.3c0.6,0.4,0.6,1,0,1.4
									c-2.7,1.7-5.3,3.4-8,5.1c-0.1,0.1-0.2,0.1-0.4,0.2c-0.1,0-0.2,0-0.3,0C20.2,29,20.1,29,20,28.9c-2.6-1.7-5.3-3.4-7.9-5
									c-0.2-0.2-0.4-0.3-0.5-0.6C11.5,23.2,11.5,23.1,11.5,23z"/>
							</g>
							<g>
								<path class="st4" d="M25.9,10.6c0.3,0.1,0.7,0.2,0.9,0.4c0.9,0.6,1.2,1.8,0.7,2.7c-0.5,1-1.6,1.4-2.6,1
									c-0.1-0.1-0.2,0-0.3,0.1c-0.8,1.1-1.5,2.2-2.3,3.3c0,0-0.1,0.1-0.1,0.1c0.5,0.5,0.7,1.2,0.8,1.9c0.4,0.1,0.9,0.2,1.3,0.3
									c0,0,0.1,0,0.1,0c0.3,0.1,0.6,0.1,0.8-0.3c0.4-0.6,1.2-0.8,1.9-0.5c0.7,0.3,1.1,0.9,1.1,1.6c-0.1,0.9-0.8,1.6-1.6,1.6
									c-0.9,0-1.6-0.6-1.7-1.5c0-0.1-0.1-0.2-0.1-0.2c-0.6-0.1-1.2-0.2-1.7-0.3c0,0,0,0-0.1,0c-0.2,0.6-0.5,1-1,1.4
									c0.8,1.2,1.6,2.4,2.4,3.6c0.6-0.2,1.1-0.2,1.7,0c0.4,0.2,0.7,0.5,0.9,0.9c0.4,0.9,0.1,1.8-0.7,2.4c-0.8,0.5-1.8,0.4-2.4-0.2
									c-0.6-0.6-0.9-1.7,0-2.7c-0.2-0.4-0.5-0.7-0.7-1.1c-0.5-0.8-1.1-1.6-1.6-2.4c0-0.1-0.1-0.1-0.2-0.1
									c-0.7,0.3-1.5,0.2-2.2-0.1c-0.7,1-1.4,2-2.1,2.9c0.5,0.6,0.6,1.3,0.5,2c-0.1,0.5-0.4,1-0.9,1.3c-0.9,0.6-2.1,0.6-2.9-0.2
									c-0.8-0.8-0.9-2-0.3-2.9c0.6-0.9,1.8-1.3,3-0.7c0.7-0.9,1.3-1.9,2-2.8c-1-1-1.2-2.1-0.7-3.3c-0.4-0.3-0.9-0.7-1.3-1
									c-0.6-0.5-1.3-1-1.9-1.5c-0.1-0.1-0.2-0.1-0.3,0c-0.6,0.4-1.3,0.4-1.9-0.1c-0.6-0.4-0.8-1-0.6-1.7c0.2-0.7,0.6-1.1,1.3-1.2
									c0.6-0.1,1.2,0.1,1.6,0.6c0.4,0.5,0.5,1.1,0.3,1.7c0,0.1-0.1,0.2,0,0.2c1.1,0.8,2.1,1.6,3.2,2.5c1-1,2.2-1.2,3.5-0.6
									c0.2-0.3,0.4-0.6,0.6-0.9c0.6-0.8,1.2-1.7,1.8-2.5c0.1-0.1,0.1-0.1,0-0.2c-1.1-1.2-0.4-3.2,1.3-3.5c0,0,0.1,0,0.1,0
									C25.6,10.6,25.7,10.6,25.9,10.6z"/>
							</g>
						</g>
					</g>
				</g>
			</g>
		</g>
	</g>
</g>
<g id="MAPBASE">
</g>
<g id="FRAMEWORK_00000157277889770142880820000012324966964318789767_">
</g>
<g id="LAYERS">
</g>
</svg>
