<?xml version="1.0" encoding="UTF-8"?>
<svg id="Layer_2" data-name="Layer 2" xmlns="http://www.w3.org/2000/svg" xmlns:xlink="http://www.w3.org/1999/xlink" viewBox="0 0 47 47">
  <defs>
    <style>
      .cls-1 {
        fill: #29235c;
      }

      .cls-2 {
        fill: #f7f7f7;
        filter: url(#drop-shadow-1);
      }
    </style>
    <filter id="drop-shadow-1" filterUnits="userSpaceOnUse">
      <feOffset dx="2.83" dy="2.83"/>
      <feGaussianBlur result="blur" stdDeviation="2.83"/>
      <feFlood flood-color="#7f7e7e" flood-opacity=".75"/>
      <feComposite in2="blur" operator="in"/>
      <feComposite in="SourceGraphic"/>
    </filter>
  </defs>
  <g id="FRAMEWORK">
    <g id="SIDE_BAR" data-name="SIDE BAR">
      <g>
        <circle class="cls-2" cx="20.48" cy="20.92" r="14.26"/>
        <g>
          <path class="cls-1" d="m21.66,20.98c0,2.12,0,4.24,0,6.36,0,.42.15.63.45.63.31,0,.47-.21.47-.64,0-4.24,0-8.48,0-12.72,0-.08,0-.15,0-.23-.03-.24-.23-.41-.47-.41-.23,0-.42.18-.44.41,0,.08,0,.17,0,.25,0,2.11,0,4.22,0,6.33Zm-.95.02c0-.97,0-1.95,0-2.92,0-.43,0-.87,0-1.3,0-.31-.23-.5-.52-.46-.25.03-.39.22-.39.55,0,2.74,0,5.47,0,8.21,0,.05,0,.11,0,.16.03.22.21.39.43.39.3.01.48-.18.48-.53,0-1.37,0-2.74,0-4.1Zm3.74-.02c0-1,0-2.01,0-3.01,0-.4,0-.81,0-1.21,0-.26-.2-.44-.46-.44-.26,0-.44.17-.46.44,0,.08,0,.15,0,.23,0,2.66,0,5.32,0,7.98,0,.08,0,.17,0,.25.03.31.32.5.61.39.23-.09.31-.27.31-.51,0-1.38,0-2.75,0-4.13Zm-11.21.02c0-1.01,0-2.02,0-3.03,0-.4,0-.79,0-1.19,0-.32-.25-.51-.55-.46-.24.04-.37.23-.37.55,0,2.74,0,5.47,0,8.21,0,.05,0,.11,0,.16.03.23.22.39.46.39.29,0,.46-.19.46-.53,0-1.37,0-2.74,0-4.1Zm14.02-.02c0,1,0,1.99,0,2.99,0,.4,0,.81,0,1.21,0,.32.25.51.55.46.24-.04.37-.23.37-.55,0-2.74,0-5.47,0-8.21,0-.05,0-.09,0-.14-.03-.26-.24-.44-.5-.41-.26.02-.41.21-.41.53,0,1.38,0,2.75,0,4.13Zm-8.42.01h0c0-.76,0-1.52,0-2.28,0-.34-.17-.53-.46-.53-.29,0-.45.2-.45.53,0,1.5,0,3,0,4.51,0,.07,0,.14.02.2.06.22.27.36.5.33.23-.03.39-.2.39-.45,0-.77,0-1.55,0-2.32Zm-3.73-.01c0-.75,0-1.5,0-2.25,0-.13-.04-.27-.11-.38-.11-.17-.31-.19-.49-.13-.21.07-.31.23-.31.46,0,.94,0,1.88,0,2.82,0,.59,0,1.18,0,1.78,0,.3.18.49.44.5.28,0,.47-.18.47-.49,0-.77,0-1.53,0-2.3Zm11.21,0c0-.74,0-1.49,0-2.23,0-.36-.16-.55-.46-.56-.29,0-.46.19-.46.55,0,.83,0,1.67,0,2.5,0,.68,0,1.35,0,2.03,0,.29.15.47.4.5.3.03.52-.16.52-.49,0-.77,0-1.53,0-2.3Zm-14.94.03c0-.11,0-.21,0-.32,0-.67,0-1.34,0-2,0-.32-.2-.51-.49-.49-.26.02-.42.21-.42.52,0,1.02,0,2.05,0,3.07,0,.5,0,1,0,1.5,0,.33.25.53.55.47.23-.04.36-.22.36-.5,0-.75,0-1.5,0-2.25Zm18.68,0c0-.77,0-1.53,0-2.3,0-.34-.2-.53-.5-.51-.26.02-.42.2-.42.52,0,.93,0,1.85,0,2.78,0,.59,0,1.18,0,1.78,0,.26.12.43.33.49.32.09.59-.13.59-.5,0-.75,0-1.5,0-2.25Zm-13.08-.03c0-.3,0-.61,0-.91,0-.29-.21-.49-.47-.48-.25,0-.44.2-.45.48,0,.61,0,1.21,0,1.82,0,.29.2.49.46.49.26,0,.45-.2.46-.49,0-.3,0-.61,0-.91Zm14.02,0h0c0,.28,0,.56,0,.84,0,.02,0,.03,0,.05.01.31.19.52.46.52.27,0,.46-.21.46-.51,0-.59,0-1.18,0-1.78,0-.3-.2-.51-.47-.5-.26,0-.44.2-.45.5,0,.3,0,.59,0,.89Z"/>
          <path class="cls-1" d="m8.58,19.93c.05-.07.08-.15.14-.2.13-.14.3-.18.48-.11.18.06.3.19.3.39,0,.65,0,1.3,0,1.95,0,.21-.14.35-.34.4-.21.05-.37-.02-.49-.19-.03-.04-.05-.09-.08-.13,0-.7,0-1.4,0-2.1Z"/>
          <path class="cls-1" d="m21.66,20.98c0-2.11,0-4.22,0-6.33,0-.08,0-.17,0-.25.02-.23.21-.4.44-.41.24,0,.44.16.47.41,0,.08,0,.15,0,.23,0,4.24,0,8.48,0,12.72,0,.43-.16.64-.47.64-.3,0-.45-.21-.45-.63,0-2.12,0-4.24,0-6.36Z"/>
          <path class="cls-1" d="m20.71,21c0,1.37,0,2.74,0,4.1,0,.35-.18.54-.48.53-.22,0-.4-.17-.43-.39,0-.05,0-.11,0-.16,0-2.74,0-5.47,0-8.21,0-.33.14-.52.39-.55.29-.04.52.15.52.46,0,.43,0,.87,0,1.3,0,.97,0,1.95,0,2.92Z"/>
          <path class="cls-1" d="m24.45,20.98c0,1.38,0,2.75,0,4.13,0,.24-.08.42-.31.51-.29.11-.58-.09-.61-.39,0-.08,0-.17,0-.25,0-2.66,0-5.32,0-7.98,0-.08,0-.15,0-.23.02-.26.2-.44.46-.44.25,0,.45.18.46.44,0,.4,0,.81,0,1.21,0,1,0,2.01,0,3.01Z"/>
          <path class="cls-1" d="m13.24,21c0,1.37,0,2.74,0,4.1,0,.34-.17.53-.46.53-.24,0-.42-.16-.46-.39,0-.05,0-.11,0-.16,0-2.74,0-5.47,0-8.21,0-.32.13-.51.37-.55.3-.05.54.14.55.46,0,.39,0,.79,0,1.19,0,1.01,0,2.02,0,3.03Z"/>
          <path class="cls-1" d="m27.26,20.98c0-1.38,0-2.75,0-4.13,0-.32.15-.51.41-.53.27-.02.47.15.5.41,0,.05,0,.09,0,.14,0,2.74,0,5.47,0,8.21,0,.32-.13.51-.37.55-.3.05-.54-.14-.55-.46,0-.4,0-.81,0-1.21,0-1,0-1.99,0-2.99Z"/>
          <path class="cls-1" d="m18.84,20.99c0,.77,0,1.55,0,2.32,0,.25-.17.43-.39.45-.24.03-.45-.11-.5-.33-.02-.07-.02-.14-.02-.2,0-1.5,0-3,0-4.51,0-.34.17-.53.45-.53.29,0,.46.19.46.53,0,.76,0,1.52,0,2.28h0Z"/>
          <path class="cls-1" d="m15.11,20.98c0,.77,0,1.53,0,2.3,0,.31-.19.5-.47.49-.27,0-.44-.2-.44-.5,0-.59,0-1.18,0-1.78,0-.94,0-1.88,0-2.82,0-.22.1-.39.31-.46.18-.06.38-.04.49.13.07.1.11.25.11.38.01.75,0,1.5,0,2.25Z"/>
          <path class="cls-1" d="m26.31,20.98c0,.77,0,1.53,0,2.3,0,.33-.22.52-.52.49-.24-.03-.39-.21-.4-.5,0-.68,0-1.35,0-2.03,0-.83,0-1.67,0-2.5,0-.36.17-.55.46-.55.29,0,.46.2.46.56,0,.74,0,1.49,0,2.23Z"/>
          <path class="cls-1" d="m11.37,21c0,.75,0,1.5,0,2.25,0,.28-.14.46-.36.5-.31.06-.55-.14-.55-.47,0-.5,0-1,0-1.5,0-1.02,0-2.05,0-3.07,0-.31.16-.5.42-.52.29-.02.49.17.49.49,0,.67,0,1.34,0,2,0,.11,0,.21,0,.32Z"/>
          <path class="cls-1" d="m30.05,21c0,.75,0,1.5,0,2.25,0,.36-.27.58-.59.5-.2-.05-.32-.23-.33-.49,0-.59,0-1.18,0-1.78,0-.93,0-1.85,0-2.78,0-.32.16-.5.42-.52.3-.02.5.18.5.51,0,.77,0,1.53,0,2.3Z"/>
          <path class="cls-1" d="m16.97,20.97c0,.3,0,.61,0,.91,0,.29-.2.49-.46.49-.26,0-.46-.2-.46-.49,0-.61,0-1.21,0-1.82,0-.27.2-.47.45-.48.26,0,.46.19.47.48,0,.3,0,.61,0,.91Z"/>
          <path class="cls-1" d="m31,20.97c0-.3,0-.59,0-.89,0-.3.19-.49.45-.5.27,0,.47.2.47.5,0,.59,0,1.18,0,1.78,0,.3-.2.51-.46.51-.27,0-.45-.2-.46-.52,0-.02,0-.03,0-.05,0-.28,0-.56,0-.84h0Z"/>
        </g>
      </g>
    </g>
  </g>
</svg>