<?xml version="1.0" encoding="utf-8"?>
<!-- Generator: Adobe Illustrator 27.2.0, SVG Export Plug-In . SVG Version: 6.00 Build 0)  -->
<svg version="1.1" id="Layer_2_00000077318529235321864520000001132002558510550171_"
	 xmlns="http://www.w3.org/2000/svg" xmlns:xlink="http://www.w3.org/1999/xlink" x="0px" y="0px" viewBox="0 0 47 47"
	 style="enable-background:new 0 0 47 47;" xml:space="preserve">
<style type="text/css">
	.st0{fill:#29235C;}
	.st1{fill:#F7F7F7;}
</style>
<g id="FRAMEWORK">
	<g id="SIDE_BAR">
		<g>
			<circle class="st0" cx="20.5" cy="20.9" r="14.3"/>
			<g>
				<path class="st1" d="M21.7,21c0,2.1,0,4.2,0,6.4c0,0.4,0.1,0.6,0.5,0.6c0.3,0,0.5-0.2,0.5-0.6c0-4.2,0-8.5,0-12.7
					c0-0.1,0-0.1,0-0.2c0-0.2-0.2-0.4-0.5-0.4c-0.2,0-0.4,0.2-0.4,0.4c0,0.1,0,0.2,0,0.2C21.7,16.7,21.7,18.9,21.7,21L21.7,21z
					 M20.7,21c0-1,0-2,0-2.9c0-0.4,0-0.9,0-1.3c0-0.3-0.2-0.5-0.5-0.5c-0.2,0-0.4,0.2-0.4,0.5c0,2.7,0,5.5,0,8.2c0,0,0,0.1,0,0.2
					c0,0.2,0.2,0.4,0.4,0.4c0.3,0,0.5-0.2,0.5-0.5C20.7,23.7,20.7,22.4,20.7,21z M24.4,21c0-1,0-2,0-3c0-0.4,0-0.8,0-1.2
					c0-0.3-0.2-0.4-0.5-0.4c-0.3,0-0.4,0.2-0.5,0.4c0,0.1,0,0.1,0,0.2c0,2.7,0,5.3,0,8c0,0.1,0,0.2,0,0.2c0,0.3,0.3,0.5,0.6,0.4
					c0.2-0.1,0.3-0.3,0.3-0.5C24.5,23.7,24.5,22.3,24.4,21L24.4,21z M13.2,21c0-1,0-2,0-3c0-0.4,0-0.8,0-1.2c0-0.3-0.2-0.5-0.6-0.5
					c-0.2,0-0.4,0.2-0.4,0.5c0,2.7,0,5.5,0,8.2c0,0,0,0.1,0,0.2c0,0.2,0.2,0.4,0.5,0.4c0.3,0,0.5-0.2,0.5-0.5
					C13.2,23.7,13.2,22.4,13.2,21z M27.3,21c0,1,0,2,0,3c0,0.4,0,0.8,0,1.2c0,0.3,0.2,0.5,0.5,0.5c0.2,0,0.4-0.2,0.4-0.5
					c0-2.7,0-5.5,0-8.2c0,0,0-0.1,0-0.1c0-0.3-0.2-0.4-0.5-0.4c-0.3,0-0.4,0.2-0.4,0.5C27.3,18.2,27.3,19.6,27.3,21L27.3,21z
					 M18.8,21L18.8,21c0-0.8,0-1.5,0-2.3c0-0.3-0.2-0.5-0.5-0.5c-0.3,0-0.5,0.2-0.5,0.5c0,1.5,0,3,0,4.5c0,0.1,0,0.1,0,0.2
					c0.1,0.2,0.3,0.4,0.5,0.3s0.4-0.2,0.4-0.5C18.8,22.5,18.8,21.8,18.8,21L18.8,21z M15.1,21c0-0.8,0-1.5,0-2.2
					c0-0.1,0-0.3-0.1-0.4c-0.1-0.2-0.3-0.2-0.5-0.1c-0.2,0.1-0.3,0.2-0.3,0.5c0,0.9,0,1.9,0,2.8c0,0.6,0,1.2,0,1.8
					c0,0.3,0.2,0.5,0.4,0.5c0.3,0,0.5-0.2,0.5-0.5C15.1,22.5,15.1,21.8,15.1,21L15.1,21z M26.3,21c0-0.7,0-1.5,0-2.2
					c0-0.4-0.2-0.5-0.5-0.6c-0.3,0-0.5,0.2-0.5,0.5c0,0.8,0,1.7,0,2.5c0,0.7,0,1.4,0,2c0,0.3,0.1,0.5,0.4,0.5c0.3,0,0.5-0.2,0.5-0.5
					C26.3,22.5,26.3,21.8,26.3,21z M11.4,21c0-0.1,0-0.2,0-0.3c0-0.7,0-1.3,0-2c0-0.3-0.2-0.5-0.5-0.5c-0.3,0-0.4,0.2-0.4,0.5
					c0,1,0,2,0,3.1c0,0.5,0,1,0,1.5c0,0.3,0.2,0.5,0.6,0.5c0.2,0,0.4-0.2,0.4-0.5C11.4,22.5,11.4,21.8,11.4,21z M30.1,21
					c0-0.8,0-1.5,0-2.3c0-0.3-0.2-0.5-0.5-0.5c-0.3,0-0.4,0.2-0.4,0.5c0,0.9,0,1.9,0,2.8c0,0.6,0,1.2,0,1.8c0,0.3,0.1,0.4,0.3,0.5
					c0.3,0.1,0.6-0.1,0.6-0.5C30.1,22.5,30.1,21.8,30.1,21L30.1,21z M17,21c0-0.3,0-0.6,0-0.9c0-0.3-0.2-0.5-0.5-0.5
					c-0.2,0-0.4,0.2-0.5,0.5c0,0.6,0,1.2,0,1.8c0,0.3,0.2,0.5,0.5,0.5c0.3,0,0.5-0.2,0.5-0.5C17,21.6,17,21.3,17,21z M31,21L31,21
					c0,0.3,0,0.6,0,0.8c0,0,0,0,0,0c0,0.3,0.2,0.5,0.5,0.5c0.3,0,0.5-0.2,0.5-0.5c0-0.6,0-1.2,0-1.8c0-0.3-0.2-0.5-0.5-0.5
					c-0.3,0-0.4,0.2-0.5,0.5C31,20.4,31,20.7,31,21L31,21z"/>
				<path class="st1" d="M8.6,19.9c0.1-0.1,0.1-0.1,0.1-0.2c0.1-0.1,0.3-0.2,0.5-0.1c0.2,0.1,0.3,0.2,0.3,0.4c0,0.6,0,1.3,0,2
					c0,0.2-0.1,0.4-0.3,0.4c-0.2,0-0.4,0-0.5-0.2c0,0-0.1-0.1-0.1-0.1C8.6,21.3,8.6,20.6,8.6,19.9L8.6,19.9z"/>
				<path class="st1" d="M21.7,21c0-2.1,0-4.2,0-6.3c0-0.1,0-0.2,0-0.2c0-0.2,0.2-0.4,0.4-0.4c0.2,0,0.4,0.2,0.5,0.4
					c0,0.1,0,0.1,0,0.2c0,4.2,0,8.5,0,12.7c0,0.4-0.2,0.6-0.5,0.6c-0.3,0-0.5-0.2-0.5-0.6C21.6,25.2,21.6,23.1,21.7,21L21.7,21z"/>
				<path class="st1" d="M20.7,21c0,1.4,0,2.7,0,4.1c0,0.4-0.2,0.5-0.5,0.5c-0.2,0-0.4-0.2-0.4-0.4c0,0,0-0.1,0-0.2
					c0-2.7,0-5.5,0-8.2c0-0.3,0.1-0.5,0.4-0.5c0.3,0,0.5,0.1,0.5,0.5c0,0.4,0,0.9,0,1.3C20.7,19.1,20.7,20,20.7,21z"/>
				<path class="st1" d="M24.5,21c0,1.4,0,2.8,0,4.1c0,0.2-0.1,0.4-0.3,0.5c-0.3,0.1-0.6-0.1-0.6-0.4c0-0.1,0-0.2,0-0.2
					c0-2.7,0-5.3,0-8c0-0.1,0-0.1,0-0.2c0-0.3,0.2-0.4,0.5-0.4c0.2,0,0.5,0.2,0.5,0.4c0,0.4,0,0.8,0,1.2C24.4,19,24.4,20,24.5,21
					L24.5,21z"/>
				<path class="st1" d="M13.2,21c0,1.4,0,2.7,0,4.1c0,0.3-0.2,0.5-0.5,0.5c-0.2,0-0.4-0.2-0.5-0.4c0,0,0-0.1,0-0.2
					c0-2.7,0-5.5,0-8.2c0-0.3,0.1-0.5,0.4-0.5c0.3,0,0.5,0.1,0.6,0.5c0,0.4,0,0.8,0,1.2C13.2,19,13.2,20,13.2,21z"/>
				<path class="st1" d="M27.3,21c0-1.4,0-2.8,0-4.1c0-0.3,0.1-0.5,0.4-0.5c0.3,0,0.5,0.1,0.5,0.4c0,0,0,0.1,0,0.1
					c0,2.7,0,5.5,0,8.2c0,0.3-0.1,0.5-0.4,0.5c-0.3,0-0.5-0.1-0.5-0.5c0-0.4,0-0.8,0-1.2C27.2,23,27.2,22,27.3,21L27.3,21z"/>
				<path class="st1" d="M18.8,21c0,0.8,0,1.5,0,2.3c0,0.2-0.2,0.4-0.4,0.5c-0.2,0-0.5-0.1-0.5-0.3c0-0.1,0-0.1,0-0.2
					c0-1.5,0-3,0-4.5c0-0.3,0.2-0.5,0.5-0.5c0.3,0,0.5,0.2,0.5,0.5C18.8,19.5,18.8,20.2,18.8,21L18.8,21L18.8,21z"/>
				<path class="st1" d="M15.1,21c0,0.8,0,1.5,0,2.3c0,0.3-0.2,0.5-0.5,0.5c-0.3,0-0.4-0.2-0.4-0.5c0-0.6,0-1.2,0-1.8
					c0-0.9,0-1.9,0-2.8c0-0.2,0.1-0.4,0.3-0.5c0.2-0.1,0.4,0,0.5,0.1c0.1,0.1,0.1,0.2,0.1,0.4C15.1,19.5,15.1,20.2,15.1,21L15.1,21z
					"/>
				<path class="st1" d="M26.3,21c0,0.8,0,1.5,0,2.3c0,0.3-0.2,0.5-0.5,0.5c-0.2,0-0.4-0.2-0.4-0.5c0-0.7,0-1.4,0-2
					c0-0.8,0-1.7,0-2.5c0-0.4,0.2-0.5,0.5-0.5c0.3,0,0.5,0.2,0.5,0.6C26.3,19.5,26.3,20.2,26.3,21z"/>
				<path class="st1" d="M11.4,21c0,0.8,0,1.5,0,2.2c0,0.3-0.1,0.5-0.4,0.5c-0.3,0.1-0.6-0.1-0.6-0.5c0-0.5,0-1,0-1.5c0-1,0-2,0-3.1
					c0-0.3,0.2-0.5,0.4-0.5c0.3,0,0.5,0.2,0.5,0.5c0,0.7,0,1.3,0,2C11.4,20.8,11.4,20.9,11.4,21z"/>
				<path class="st1" d="M30,21c0,0.8,0,1.5,0,2.2c0,0.4-0.3,0.6-0.6,0.5c-0.2,0-0.3-0.2-0.3-0.5c0-0.6,0-1.2,0-1.8
					c0-0.9,0-1.9,0-2.8c0-0.3,0.2-0.5,0.4-0.5c0.3,0,0.5,0.2,0.5,0.5C30,19.5,30,20.2,30,21L30,21z"/>
				<path class="st1" d="M17,21c0,0.3,0,0.6,0,0.9c0,0.3-0.2,0.5-0.5,0.5c-0.3,0-0.5-0.2-0.5-0.5c0-0.6,0-1.2,0-1.8
					c0-0.3,0.2-0.5,0.5-0.5c0.3,0,0.5,0.2,0.5,0.5C17,20.4,17,20.7,17,21z"/>
				<path class="st1" d="M31,21c0-0.3,0-0.6,0-0.9s0.2-0.5,0.5-0.5c0.3,0,0.5,0.2,0.5,0.5c0,0.6,0,1.2,0,1.8c0,0.3-0.2,0.5-0.5,0.5
					c-0.3,0-0.5-0.2-0.5-0.5c0,0,0,0,0,0C31,21.5,31,21.2,31,21L31,21L31,21z"/>
			</g>
		</g>
	</g>
</g>
</svg>
