<?xml version="1.0" encoding="utf-8"?>
<!-- Generator: Adobe Illustrator 27.0.0, SVG Export Plug-In . SVG Version: 6.00 Build 0)  -->
<svg version="1.1" xmlns="http://www.w3.org/2000/svg" xmlns:xlink="http://www.w3.org/1999/xlink" x="0px" y="0px"
	 viewBox="0 0 47 47" style="enable-background:new 0 0 47 47;" xml:space="preserve">
<style type="text/css">
	.st0{display:none;}
	.st1{display:inline;fill:url(#SVGID_1_);}
	.st2{fill:#FFFFFF;}
	.st3{fill:#29235C;}
</style>
<g id="Layer_1">
	<g id="bg" class="st0">
		
			<linearGradient id="SVGID_1_" gradientUnits="userSpaceOnUse" x1="0" y1="23.6756" x2="47.2" y2="23.6756" gradientTransform="matrix(1 0 0 -1 0 47.2756)">
			<stop  offset="0" style="stop-color:#009EE2"/>
			<stop  offset="0.1389" style="stop-color:#0B7EBF"/>
			<stop  offset="0.3087" style="stop-color:#165D9C"/>
			<stop  offset="0.4805" style="stop-color:#1E4480"/>
			<stop  offset="0.6526" style="stop-color:#24326C"/>
			<stop  offset="0.8254" style="stop-color:#282760"/>
			<stop  offset="1" style="stop-color:#29235C"/>
		</linearGradient>
		<rect y="0" class="st1" width="47.2" height="47.2"/>
	</g>
	<g id="Layer_2_00000031186395373394350750000014820408859257448102_">
		<g id="FRAMEWORK">
			<g id="SIDE_BAR">
				<g>
					<g>
						
							<image style="overflow:visible;opacity:0.75;" width="191" height="191" xlink:href="67B26950.png"  transform="matrix(0.24 0 0 0.24 0.3761 0.5761)">
						</image>
						<g>
							<circle class="st2" cx="20.5" cy="20.6" r="14.3"/>
						</g>
					</g>
					<g>
						<path class="st3" d="M21.4,20.6c0-1.1,0-2.2,0-3.3c0-0.1,0-0.2-0.2-0.2c-2.4-1-5.2,0.7-5.4,3.3c-0.2,2.9,2.7,4.9,5.4,3.8
							c0.1,0,0.2-0.1,0.2-0.2C21.4,22.8,21.4,21.7,21.4,20.6z M22.5,18.6c0.1,0,0.1,0,0.2,0c0.9,0,1.7,0,2.6,0
							c0.2,0,0.4-0.1,0.5-0.2c0.4-0.3,0.8-0.6,1.2-1c0.1-0.1,0.2-0.1,0.3-0.1c0.5,0.2,1,0.1,1.5-0.2c0.4-0.3,0.6-0.8,0.5-1.3
							c-0.1-0.8-0.9-1.4-1.7-1.2c-0.8,0.2-1.3,0.9-1.1,1.8c0,0.1,0,0.2-0.1,0.2c-0.3,0.3-0.6,0.5-1,0.8c-0.1,0.1-0.2,0.1-0.3,0.1
							c-0.8,0-1.5,0-2.3,0c-0.1,0-0.1,0-0.2,0C22.5,17.8,22.5,18.2,22.5,18.6z M22.5,23.7c0.1,0,0.1,0,0.2,0c0.7,0,1.5,0,2.2,0
							c0.1,0,0.2,0,0.3,0.1c0.3,0.2,0.6,0.5,0.9,0.7c0.1,0.1,0.2,0.2,0.1,0.4c-0.2,0.9,0.5,1.7,1.4,1.7c0.6,0,1.2-0.3,1.4-0.9
							c0.3-0.5,0.2-1.2-0.3-1.6c-0.4-0.4-1-0.6-1.6-0.4c-0.1,0-0.2,0-0.3,0c-0.4-0.3-0.8-0.7-1.2-1c-0.1-0.1-0.3-0.2-0.5-0.2
							c-0.9,0-1.7,0-2.6,0c-0.1,0-0.1,0-0.2,0C22.5,23,22.5,23.3,22.5,23.7z M22.5,21.2c0.1,0,0.2,0,0.2,0c1.1,0,2.3,0,3.4,0
							c0.1,0,0.2,0,0.3,0.2c0.3,0.5,0.7,0.7,1.2,0.8c0.7,0,1.4-0.5,1.5-1.2c0.1-0.7-0.3-1.4-1-1.7c-0.7-0.2-1.4,0-1.8,0.7
							c-0.1,0.1-0.1,0.1-0.2,0.1c-1.2,0-2.3,0-3.5,0c-0.1,0-0.1,0-0.2,0C22.5,20.4,22.5,20.8,22.5,21.2z M22.5,13.4
							c0.4,0,0.8,0,1.1,0c0.1,0,0.2,0,0.2,0.1c0.3,0.5,0.7,0.8,1.3,0.8c0.7,0,1.3-0.5,1.5-1.3c0.1-0.7-0.3-1.4-1-1.6
							c-0.7-0.2-1.4,0-1.8,0.7c-0.1,0.1-0.1,0.2-0.3,0.2c-0.4,0-0.7,0-1.1,0C22.5,12.7,22.5,13.1,22.5,13.4z M22.5,27.8
							c0,0.4,0,0.7,0,1.1c0.4,0,0.7,0,1.1,0c0.1,0,0.2,0,0.3,0.1c0.3,0.5,0.7,0.7,1.2,0.8c0.7,0,1.4-0.5,1.5-1.2
							c0.1-0.7-0.3-1.4-0.9-1.7c-0.7-0.2-1.4,0-1.8,0.7c-0.1,0.1-0.1,0.1-0.2,0.1C23.2,27.8,22.9,27.8,22.5,27.8z"/>
						<path class="st3" d="M10.3,19.3c0.1-0.3,0.4-0.4,0.7-0.4c0.2,0,0.3,0,0.5,0c0.2-1,0.6-2,1.2-2.9c-0.2-0.1-0.3-0.3-0.5-0.4
							c-0.3-0.3-0.3-0.6,0-0.9c0.5-0.5,1-1,1.5-1.5c0.3-0.3,0.6-0.3,0.9,0c0.2,0.2,0.3,0.3,0.5,0.5c0.9-0.6,1.9-1,2.9-1.2
							c0-0.2,0-0.4,0-0.6c0-0.4,0.2-0.6,0.6-0.6c0.7,0,1.4,0,2.1,0c0.3,0,0.6,0.2,0.6,0.6c0,1.3,0,2.7,0,4c0,0,0,0,0,0.1
							c-2.4-0.6-4.5,0-5.8,2.1c-1.1,1.7-1.1,3.6,0.1,5.3c1.4,2.1,3.4,2.6,5.8,2c0,0,0,0.1,0,0.2c0,1.3,0,2.6,0,3.9
							c0,0.4-0.2,0.6-0.7,0.6c-0.7,0-1.3,0-2,0c-0.4,0-0.6-0.2-0.6-0.6c0-0.2,0-0.4,0-0.6c-0.5-0.2-1-0.3-1.5-0.5
							c-0.5-0.2-0.9-0.5-1.5-0.7c-0.1,0.1-0.3,0.3-0.4,0.5c-0.3,0.3-0.6,0.3-0.9,0c-0.5-0.5-1-1-1.5-1.5c-0.3-0.3-0.3-0.6,0-0.9
							c0.1-0.1,0.3-0.3,0.4-0.4c-0.3-0.5-0.5-1-0.7-1.4c-0.2-0.5-0.3-1-0.5-1.5c-0.1,0-0.3,0-0.5,0c-0.3,0-0.6-0.1-0.7-0.4
							C10.3,21,10.3,20.2,10.3,19.3z"/>
						<path class="st3" d="M21.4,20.6c0,1.1,0,2.2,0,3.3c0,0.1,0,0.2-0.2,0.2c-2.6,1.1-5.5-1-5.4-3.8c0.2-2.6,2.9-4.4,5.4-3.3
							c0.1,0.1,0.2,0.1,0.2,0.2C21.4,18.4,21.4,19.5,21.4,20.6z"/>
						<path class="st3" d="M22.5,18.6c0-0.4,0-0.7,0-1.1c0.1,0,0.1,0,0.2,0c0.8,0,1.5,0,2.3,0c0.1,0,0.2,0,0.3-0.1
							c0.3-0.3,0.7-0.5,1-0.8c0.1-0.1,0.1-0.1,0.1-0.2c-0.2-0.8,0.3-1.6,1.1-1.8c0.8-0.2,1.6,0.4,1.7,1.2c0.1,0.5-0.1,1-0.5,1.3
							c-0.4,0.4-0.9,0.4-1.5,0.2c-0.1,0-0.2,0-0.3,0.1c-0.4,0.3-0.8,0.6-1.2,1c-0.2,0.1-0.3,0.2-0.5,0.2c-0.9,0-1.7,0-2.6,0
							C22.6,18.6,22.6,18.6,22.5,18.6z"/>
						<path class="st3" d="M22.5,23.7c0-0.4,0-0.7,0-1.1c0.1,0,0.1,0,0.2,0c0.9,0,1.7,0,2.6,0c0.2,0,0.4,0.1,0.5,0.2
							c0.4,0.3,0.8,0.7,1.2,1c0.1,0.1,0.2,0.1,0.3,0c0.6-0.2,1.2-0.1,1.6,0.4c0.4,0.4,0.5,1.1,0.3,1.6c-0.3,0.5-0.8,0.9-1.4,0.9
							c-0.9,0-1.5-0.9-1.4-1.7c0-0.2,0-0.3-0.1-0.4c-0.3-0.2-0.6-0.5-0.9-0.7c-0.1-0.1-0.2-0.1-0.3-0.1c-0.7,0-1.5,0-2.2,0
							C22.6,23.7,22.6,23.7,22.5,23.7z"/>
						<path class="st3" d="M22.5,21.2c0-0.4,0-0.7,0-1.1c0.1,0,0.1,0,0.2,0c1.2,0,2.3,0,3.5,0c0.1,0,0.2,0,0.2-0.1
							c0.3-0.7,1.1-0.9,1.8-0.7c0.7,0.2,1.1,0.9,1,1.7c-0.1,0.7-0.8,1.2-1.5,1.2c-0.5,0-1-0.3-1.2-0.8c-0.1-0.1-0.1-0.2-0.3-0.2
							c-1.1,0-2.3,0-3.4,0C22.6,21.2,22.6,21.2,22.5,21.2z"/>
						<path class="st3" d="M22.5,13.4c0-0.4,0-0.7,0-1.1c0.4,0,0.7,0,1.1,0c0.1,0,0.2,0,0.3-0.2c0.3-0.6,1.1-0.9,1.8-0.7
							c0.7,0.2,1.1,0.9,1,1.6c-0.1,0.7-0.7,1.3-1.5,1.3c-0.6,0-1-0.3-1.3-0.8c-0.1-0.1-0.1-0.1-0.2-0.1
							C23.2,13.4,22.9,13.4,22.5,13.4z"/>
						<path class="st3" d="M22.5,27.8c0.4,0,0.7,0,1.1,0c0.1,0,0.2,0,0.2-0.1c0.3-0.7,1.1-0.9,1.8-0.7c0.7,0.2,1.1,1,0.9,1.7
							c-0.1,0.7-0.8,1.2-1.5,1.2c-0.5,0-1-0.3-1.2-0.8c-0.1-0.1-0.1-0.1-0.3-0.1c-0.4,0-0.7,0-1.1,0C22.5,28.5,22.5,28.1,22.5,27.8z
							"/>
					</g>
				</g>
			</g>
		</g>
	</g>
</g>
<g id="Scenario">
</g>
<g id="FRAMEWORK_00000095338722278041551550000011570618600039795341_">
</g>
</svg>
