<?xml version="1.0" encoding="UTF-8"?>
<svg id="Layer_2" data-name="Layer 2" xmlns="http://www.w3.org/2000/svg" xmlns:xlink="http://www.w3.org/1999/xlink" viewBox="0 0 47 47">
  <defs>
    <style>
      .cls-1 {
        fill: #fff;
      }

      .cls-2 {
        fill: #29235c;
      }

      .cls-3 {
        fill: #f7f7f7;
        filter: url(#drop-shadow-1);
      }
    </style>
    <filter id="drop-shadow-1" filterUnits="userSpaceOnUse">
      <feOffset dx="2.83" dy="2.83"/>
      <feGaussianBlur result="blur" stdDeviation="2.83"/>
      <feFlood flood-color="#7f7e7e" flood-opacity=".75"/>
      <feComposite in2="blur" operator="in"/>
      <feComposite in="SourceGraphic"/>
    </filter>
  </defs>
  <g id="FRAMEWORK">
    <g id="SIDE_BAR" data-name="SIDE BAR">
      <circle class="cls-3" cx="20.48" cy="20.88" r="14.26"/>
    </g>
    <g>
      <path class="cls-2" d="m21.22,9.16c.16.07.33.13.48.21.71.41,1.08,1.03,1.07,1.85-.02.82-.42,1.42-1.15,1.79-.17.08-.23.17-.22.36.01.45,0,.9,0,1.36,1.77.23,3.19,1.05,4.28,2.46.42-.25.85-.48,1.26-.74.05-.03.06-.14.06-.21-.06-1.07.54-1.93,1.53-2.2.91-.24,1.89.18,2.34,1.02.45.85.26,1.91-.46,2.53-.74.64-1.77.69-2.56.11-.04-.03-.09-.06-.14-.1-.41.23-.81.47-1.21.7-.1.06-.12.11-.07.22.63,1.55.63,3.11,0,4.66-.05.12-.02.18.09.23.4.22.79.46,1.2.69.39-.33.84-.51,1.36-.5,1.08.01,1.95.86,2.03,1.98.07,1.06-.75,2.01-1.85,2.14-1.03.12-2.02-.6-2.22-1.63-.04-.21-.04-.43-.03-.64,0-.13-.03-.19-.14-.25-.39-.22-.78-.45-1.19-.68-1.08,1.4-2.5,2.23-4.27,2.46v1.62c.63.26,1.08.7,1.28,1.37.31,1.06-.27,2.15-1.32,2.52-1.01.35-2.14-.16-2.56-1.16-.43-1,0-2.17,1-2.64.17-.08.23-.17.22-.36-.01-.4,0-.79,0-1.19,0-.12-.03-.17-.16-.19-1.66-.24-3.02-1.03-4.06-2.35-.02-.02-.04-.04-.07-.08-.42.24-.85.48-1.26.73-.04.03-.07.13-.06.19.12,1.26-.85,2.32-2.11,2.29-.86-.02-1.64-.61-1.9-1.44-.27-.85.04-1.78.77-2.3.72-.52,1.66-.52,2.38,0,.12.08.19.1.32.02.38-.23.78-.45,1.18-.69-.69-1.65-.7-3.29,0-4.94-.05-.03-.09-.07-.14-.1-.31-.18-.63-.35-.93-.54-.18-.12-.31-.12-.5.01-.67.47-1.54.46-2.24,0-.7-.46-1.04-1.3-.88-2.14.15-.78.8-1.44,1.59-1.6,1.39-.28,2.61.83,2.48,2.24,0,.07.04.18.1.21.4.24.8.47,1.2.69.33-.34.64-.69.99-.99.9-.79,1.96-1.25,3.15-1.43.07-.01.17-.09.17-.14.01-.5,0-.99,0-1.49-.57-.23-.98-.6-1.22-1.16-.45-1.06.09-2.31,1.18-2.71.08-.03.16-.06.23-.09.34,0,.67,0,1.01,0Zm-3.25,12.37h5.48v-1.34h-5.48v1.34Zm.69-2.75h4.11v-1.34h-4.11v1.34Zm0,5.51h4.11v-1.34h-4.11v1.34Z"/>
      <rect class="cls-2" x="16.78" y="16.92" width="7.98" height="7.64"/>
      <g>
        <path class="cls-1" d="m21.38,24.56s-.01-.01-.02-.01c-.19-.07-.28-.18-.28-.38,0-1.1,0-2.2,0-3.3,0-.16.07-.28.22-.36.85-.46,1.7-.93,2.56-1.39.28-.15.57.02.57.33,0,1.08,0,2.16,0,3.24,0,.16-.07.28-.21.36-.86.49-1.71.97-2.57,1.46-.04.02-.09.04-.13.06h-.14Z"/>
        <path class="cls-1" d="m20.05,24.56c-.31-.17-.62-.34-.92-.51-.58-.33-1.16-.66-1.74-.98-.17-.09-.25-.22-.25-.42,0-1.06,0-2.12,0-3.18,0-.23.13-.39.34-.4.08,0,.17.02.24.06.78.42,1.55.84,2.33,1.26.07.04.14.08.22.12.15.08.22.2.22.37,0,.17,0,.33,0,.5,0,.9,0,1.81,0,2.71,0,.23-.07.4-.3.47h-.14Z"/>
        <path class="cls-1" d="m20.74,16.39c.07.02.13.03.18.06.94.48,1.88.97,2.82,1.46.14.07.21.18.21.34,0,.15-.08.26-.21.33-.94.49-1.87.98-2.81,1.46-.13.07-.26.07-.39,0-.91-.48-1.82-.97-2.73-1.45-.14-.08-.23-.19-.23-.35,0-.16.09-.27.23-.34.92-.48,1.83-.96,2.74-1.44.06-.03.12-.04.19-.07Z"/>
      </g>
    </g>
  </g>
</svg>