<?xml version="1.0" encoding="UTF-8"?>
<svg id="Layer_2" data-name="Layer 2" xmlns="http://www.w3.org/2000/svg" xmlns:xlink="http://www.w3.org/1999/xlink" viewBox="0 0 47 46">
  <defs>
    <style>
      .cls-1 {
        stroke-dasharray: 0 0 1.09 1.09;
      }

      .cls-1, .cls-2, .cls-3, .cls-4 {
        fill: none;
        stroke: #29235c;
        stroke-miterlimit: 10;
        stroke-width: .76px;
      }

      .cls-3 {
        stroke-dasharray: 0 0 1.1 1.1;
      }

      .cls-5 {
        fill: #29235c;
      }

      .cls-4 {
        stroke-dasharray: 0 0 1.08 1.08;
      }

      .cls-6 {
        fill: #f7f7f7;
        filter: url(#drop-shadow-1);
      }
    </style>
    <filter id="drop-shadow-1" filterUnits="userSpaceOnUse">
      <feOffset dx="2.83" dy="2.83"/>
      <feGaussianBlur result="blur" stdDeviation="2.83"/>
      <feFlood flood-color="#7f7e7e" flood-opacity=".75"/>
      <feComposite in2="blur" operator="in"/>
      <feComposite in="SourceGraphic"/>
    </filter>
  </defs>
  <g id="FRAMEWORK">
    <g id="SIDE_BAR" data-name="SIDE BAR">
      <g id="icons">
        <g>
          <circle class="cls-6" cx="20.48" cy="20.22" r="14.26"/>
          <g>
            <g>
              <path class="cls-5" d="m15.26,11.47h-3.46c-.94,0-1.7.76-1.7,1.7,0,0,0,0,0,.01v3.97c0,.85.69,1.53,1.53,1.53h3.83c.85,0,1.53-.69,1.53-1.53v-3.97c0-.95-.77-1.71-1.71-1.71,0,0-.01,0-.02,0Zm-3.6,6.33c-.35,0-.63-.28-.63-.63,0-.35.28-.63.63-.63s.63.28.63.63h0c0,.34-.28.62-.62.63,0,0,0,0,0,0Zm4.47-2.16h-5.15v-2.5h5.14v2.5Zm-.71,2.16c-.35,0-.63-.28-.63-.63s.28-.63.63-.63.63.28.63.63h0c0,.35-.28.63-.63.63Z"/>
              <polygon class="cls-5" points="11.62 18.69 10.7 19.48 12.08 19.48 12.88 18.69 11.62 18.69"/>
              <polygon class="cls-5" points="15.54 18.69 16.45 19.48 15.08 19.48 14.28 18.69 15.54 18.69"/>
            </g>
            <g>
              <g>
                <path class="cls-2" d="m17.24,28.7c-.18-.06-.36-.13-.53-.2"/>
                <path class="cls-1" d="m15.73,28.03c-2.7-1.51-4.52-4.4-4.52-7.71,0-.34.02-.67.06-1"/>
                <path class="cls-2" d="m11.34,18.77c.03-.19.07-.37.12-.55"/>
              </g>
              <g>
                <path class="cls-2" d="m28.67,18.36c.04.18.08.37.11.56"/>
                <path class="cls-4" d="m28.88,19.98c0,.11,0,.22,0,.33,0,3.51-2.05,6.54-5.01,7.97"/>
                <path class="cls-2" d="m23.38,28.5c-.17.07-.35.14-.53.2"/>
              </g>
              <g>
                <path class="cls-2" d="m15.75,12.58c.16-.09.33-.18.5-.26"/>
                <path class="cls-3" d="m17.28,11.91c.87-.29,1.8-.44,2.77-.44,1.91,0,3.69.61,5.14,1.64"/>
                <path class="cls-2" d="m25.62,13.45c.15.12.29.24.43.37"/>
              </g>
            </g>
            <g id="Taxi">
              <path class="cls-5" d="m18.67,25.69h-.23c-.27,0-.57.2-.67.45l-.34.83-.32-.09s-.06-.01-.09-.01c-.16,0-.28.12-.28.3v.18c0,.2.16.36.36.36h.02l-.05.12c-.09.23-.17.62-.17.87v1.65c0,.2.16.36.36.36h.44c.2,0,.36-.16.36-.36v-.41h3.94v.41c0,.2.16.36.36.36h.44c.2,0,.36-.16.36-.36v-1.65c0-.25-.08-.64-.17-.87l-.05-.12h.03c.2,0,.36-.16.36-.36v-.18c0-.17-.12-.3-.28-.3-.03,0-.06,0-.09.01l-.32.09-.34-.83c-.1-.25-.4-.45-.67-.45h-2.98Zm-.98,1.81l.52-1.26c.06-.15.24-.27.4-.27h2.88c.16,0,.34.12.4.27l.52,1.26c.06.15-.02.27-.18.27h-4.35c-.16,0-.24-.12-.18-.27Zm1.17,1.62c0,.08-.07.15-.15.15h-.99c-.08,0-.15-.07-.15-.15v-.47c0-.08.07-.15.15-.15h.99c.08,0,.15.07.15.15v.47Zm3.65,0c0,.08-.07.15-.15.15h-.99c-.08,0-.15-.07-.15-.15v-.47c0-.08.07-.15.15-.15h.99c.08,0,.15.07.15.15v.47Z"/>
            </g>
            <path class="cls-5" d="m30.17,19.01h-.68s-.01,0-.02-.01c-.21-.06-.32-.21-.32-.43,0-.04,0-.07,0-.11h-1.64s0,.06,0,.08c-.01.08-.02.16-.05.23-.05.13-.17.19-.3.23h-.68c-.13-.04-.23-.1-.3-.22-.05-.09-.05-.19-.05-.29,0-.02-.02-.05-.03-.05-.31-.08-.52-.38-.51-.74.01-.63,0-1.26,0-1.89v-.08s-.06,0-.09,0c-.08-.01-.16-.02-.23-.05-.13-.05-.19-.17-.23-.3,0-.14,0-.28,0-.42,0,0,0-.02.01-.03.05-.27.22-.45.48-.54.05-.02.06-.04.06-.08,0-.39,0-.78,0-1.16,0-.41.3-.7.7-.7,1.35,0,2.7,0,4.05,0,.06,0,.12,0,.18.02.32.08.52.34.52.68,0,.39,0,.77,0,1.16,0,.05.01.07.06.08.25.08.41.24.47.5.03.13.02.27.02.41,0,.26-.17.43-.43.43-.04,0-.07,0-.12,0,0,.04,0,.06,0,.09,0,.64,0,1.29,0,1.93,0,.34-.18.59-.5.68-.03.01-.04.03-.05.06,0,.09-.01.19-.04.27-.05.13-.17.2-.3.24Zm-1.84-4.91c-.58,0-1.15,0-1.73,0-.29,0-.46.17-.46.46,0,.42,0,.85,0,1.27,0,.05,0,.1.02.15.05.19.21.3.43.3,1.16,0,2.31,0,3.47,0,.05,0,.1,0,.15-.02.19-.05.3-.21.31-.42,0-.44,0-.87,0-1.31,0-.04,0-.09-.02-.13-.05-.19-.21-.3-.42-.3-.58,0-1.16,0-1.75,0Zm0-1.09c-.42,0-.84,0-1.25,0-.09,0-.19,0-.28,0-.28.02-.46.33-.33.58.09.17.23.23.42.23.97,0,1.94,0,2.91,0,.01,0,.03,0,.04,0,.3-.01.49-.28.39-.55-.06-.17-.21-.26-.41-.27-.49,0-.98,0-1.47,0Zm-1.5,4.64c.23,0,.41-.19.41-.41,0-.22-.19-.41-.41-.41-.22,0-.41.19-.41.41,0,.22.18.4.41.4Zm3.41-.41c0-.22-.18-.41-.4-.41-.22,0-.41.18-.41.41,0,.22.19.41.41.41.22,0,.4-.18.4-.41Z"/>
          </g>
        </g>
      </g>
    </g>
  </g>
</svg>