<?xml version="1.0" encoding="utf-8"?>
<!-- Generator: Adobe Illustrator 27.0.0, SVG Export Plug-In . SVG Version: 6.00 Build 0)  -->
<svg version="1.1" xmlns="http://www.w3.org/2000/svg" xmlns:xlink="http://www.w3.org/1999/xlink" x="0px" y="0px"
	 viewBox="0 0 47 46" style="enable-background:new 0 0 47 46;" xml:space="preserve">
<style type="text/css">
	.st0{fill:url(#SVGID_1_);}
	.st1{fill:#FFFFFF;}
	.st2{fill:#FFFFFF;stroke:#FFFFFF;stroke-width:0.76;stroke-miterlimit:10;}
	.st3{fill:none;stroke:#FFFFFF;stroke-width:0.76;stroke-miterlimit:10;stroke-dasharray:0,0,1.09,1.09;}
	.st4{fill:none;stroke:#FFFFFF;stroke-width:0.76;stroke-miterlimit:10;stroke-dasharray:0,0,1.08,1.08;}
	.st5{fill:none;stroke:#FFFFFF;stroke-width:0.76;stroke-miterlimit:10;stroke-dasharray:0,0,1.1,1.1;}
</style>
<g id="Layer_2_00000147197555209815298070000000963686527239276428_">
	<g id="FRAMEWORK">
		<g id="SIDE_BAR">
			<g id="icons">
				<g>
					<linearGradient id="SVGID_1_" gradientUnits="userSpaceOnUse" x1="20.48" y1="5.96" x2="20.48" y2="34.48">
						<stop  offset="0" style="stop-color:#009EE2"/>
						<stop  offset="0.1389" style="stop-color:#0B7EBF"/>
						<stop  offset="0.3087" style="stop-color:#165D9C"/>
						<stop  offset="0.4805" style="stop-color:#1E4480"/>
						<stop  offset="0.6526" style="stop-color:#24326C"/>
						<stop  offset="0.8254" style="stop-color:#282760"/>
						<stop  offset="1" style="stop-color:#29235C"/>
					</linearGradient>
					<circle class="st0" cx="20.5" cy="20.2" r="14.3"/>
					<g>
						<g>
							<path class="st1" d="M15.3,11.5h-3.5c-0.9,0-1.7,0.8-1.7,1.7c0,0,0,0,0,0v4c0,0.9,0.7,1.5,1.5,1.5h3.8c0.8,0,1.5-0.7,1.5-1.5
								v-4C17,12.2,16.2,11.5,15.3,11.5C15.3,11.5,15.3,11.5,15.3,11.5z M11.7,17.8c-0.4,0-0.6-0.3-0.6-0.6c0-0.4,0.3-0.6,0.6-0.6
								s0.6,0.3,0.6,0.6l0,0C12.3,17.5,12,17.8,11.7,17.8L11.7,17.8L11.7,17.8z M16.1,15.6H11v-2.5h5.1L16.1,15.6L16.1,15.6z
								 M15.4,17.8c-0.4,0-0.6-0.3-0.6-0.6s0.3-0.6,0.6-0.6s0.6,0.3,0.6,0.6l0,0C16,17.5,15.8,17.8,15.4,17.8z"/>
							<polygon class="st1" points="11.6,18.7 10.7,19.5 12.1,19.5 12.9,18.7 							"/>
							<polygon class="st1" points="15.5,18.7 16.5,19.5 15.1,19.5 14.3,18.7 							"/>
						</g>
						<g>
							<g>
								<path class="st2" d="M17.2,28.7c-0.2-0.1-0.4-0.1-0.5-0.2"/>
								<path class="st3" d="M15.7,28c-2.7-1.5-4.5-4.4-4.5-7.7c0-0.3,0-0.7,0.1-1"/>
							</g>
							<g>
								<path class="st4" d="M28.7,18.4c0,0.2,0.1,0.4,0.1,0.6"/>
								<path class="st4" d="M28.9,20c0,0.1,0,0.2,0,0.3c0,3.5-2,6.5-5,8"/>
								<path class="st2" d="M23.4,28.5c-0.2,0.1-0.4,0.1-0.5,0.2"/>
							</g>
							<g>
								<path class="st5" d="M15.8,12.6c0.2-0.1,0.3-0.2,0.5-0.3"/>
								<path class="st5" d="M17.3,11.9c0.9-0.3,1.8-0.4,2.8-0.4c1.9,0,3.7,0.6,5.1,1.6"/>
								<path class="st2" d="M25.6,13.4c0.1,0.1,0.3,0.2,0.4,0.4"/>
							</g>
						</g>
						<g id="Taxi">
							<path class="st1" d="M18.7,25.7h-0.2c-0.3,0-0.6,0.2-0.7,0.5L17.4,27l-0.3-0.1c0,0-0.1,0-0.1,0c-0.2,0-0.3,0.1-0.3,0.3v0.2
								c0,0.2,0.2,0.4,0.4,0.4h0l0,0.1c-0.1,0.2-0.2,0.6-0.2,0.9v1.6c0,0.2,0.2,0.4,0.4,0.4h0.4c0.2,0,0.4-0.2,0.4-0.4v-0.4H22v0.4
								c0,0.2,0.2,0.4,0.4,0.4h0.4c0.2,0,0.4-0.2,0.4-0.4v-1.6c0-0.2-0.1-0.6-0.2-0.9l0-0.1h0c0.2,0,0.4-0.2,0.4-0.4v-0.2
								c0-0.2-0.1-0.3-0.3-0.3c0,0-0.1,0-0.1,0L22.6,27l-0.3-0.8c-0.1-0.2-0.4-0.5-0.7-0.5H18.7L18.7,25.7z M17.7,27.5l0.5-1.3
								c0.1-0.1,0.2-0.3,0.4-0.3h2.9c0.2,0,0.3,0.1,0.4,0.3l0.5,1.3c0.1,0.1,0,0.3-0.2,0.3h-4.4C17.7,27.8,17.6,27.6,17.7,27.5
								L17.7,27.5z M18.9,29.1c0,0.1-0.1,0.1-0.1,0.1h-1c-0.1,0-0.1-0.1-0.1-0.1v-0.5c0-0.1,0.1-0.1,0.1-0.1h1
								c0.1,0,0.1,0.1,0.1,0.1V29.1z M22.5,29.1c0,0.1-0.1,0.1-0.1,0.1h-1c-0.1,0-0.1-0.1-0.1-0.1v-0.5c0-0.1,0.1-0.1,0.1-0.1h1
								c0.1,0,0.1,0.1,0.1,0.1V29.1z"/>
						</g>
						<path class="st1" d="M30.2,19h-0.7c0,0,0,0,0,0c-0.2-0.1-0.3-0.2-0.3-0.4c0,0,0-0.1,0-0.1h-1.6c0,0,0,0.1,0,0.1
							c0,0.1,0,0.2,0,0.2c0,0.1-0.2,0.2-0.3,0.2h-0.7c-0.1,0-0.2-0.1-0.3-0.2c0-0.1,0-0.2,0-0.3c0,0,0,0,0,0
							c-0.3-0.1-0.5-0.4-0.5-0.7c0-0.6,0-1.3,0-1.9v-0.1c0,0-0.1,0-0.1,0c-0.1,0-0.2,0-0.2-0.1c-0.1-0.1-0.2-0.2-0.2-0.3
							c0-0.1,0-0.3,0-0.4c0,0,0,0,0,0c0-0.3,0.2-0.4,0.5-0.5c0,0,0.1,0,0.1-0.1c0-0.4,0-0.8,0-1.2c0-0.4,0.3-0.7,0.7-0.7
							c1.4,0,2.7,0,4.1,0c0.1,0,0.1,0,0.2,0c0.3,0.1,0.5,0.3,0.5,0.7c0,0.4,0,0.8,0,1.2c0,0.1,0,0.1,0.1,0.1
							c0.2,0.1,0.4,0.2,0.5,0.5c0,0.1,0,0.3,0,0.4c0,0.3-0.2,0.4-0.4,0.4c0,0-0.1,0-0.1,0c0,0,0,0.1,0,0.1c0,0.6,0,1.3,0,1.9
							c0,0.3-0.2,0.6-0.5,0.7c0,0,0,0,0,0.1c0,0.1,0,0.2,0,0.3C30.4,18.9,30.3,19,30.2,19L30.2,19z M28.3,14.1c-0.6,0-1.1,0-1.7,0
							c-0.3,0-0.5,0.2-0.5,0.5c0,0.4,0,0.9,0,1.3c0,0.1,0,0.1,0,0.1c0,0.2,0.2,0.3,0.4,0.3c1.2,0,2.3,0,3.5,0c0,0,0.1,0,0.1,0
							c0.2,0,0.3-0.2,0.3-0.4c0-0.4,0-0.9,0-1.3c0,0,0-0.1,0-0.1c0-0.2-0.2-0.3-0.4-0.3C29.5,14.1,28.9,14.1,28.3,14.1z M28.3,13
							c-0.4,0-0.8,0-1.2,0c-0.1,0-0.2,0-0.3,0c-0.3,0-0.5,0.3-0.3,0.6c0.1,0.2,0.2,0.2,0.4,0.2c1,0,1.9,0,2.9,0c0,0,0,0,0,0
							c0.3,0,0.5-0.3,0.4-0.6C30.2,13.1,30,13,29.8,13C29.3,13,28.8,13,28.3,13L28.3,13z M26.8,17.6c0.2,0,0.4-0.2,0.4-0.4
							s-0.2-0.4-0.4-0.4s-0.4,0.2-0.4,0.4S26.6,17.6,26.8,17.6L26.8,17.6z M30.2,17.2c0-0.2-0.2-0.4-0.4-0.4s-0.4,0.2-0.4,0.4
							c0,0.2,0.2,0.4,0.4,0.4S30.2,17.5,30.2,17.2z"/>
					</g>
				</g>
			</g>
		</g>
	</g>
</g>
<g id="new_icons">
</g>
</svg>
